PathFileType	4	(X/Y/Z)	markers
DataRate	CameraRate	NumFrames	NumMarkers	Units	OrigDataRate	OrigDataStartFrame	OrigNumFrames
200	200	6	39	mm	200	129	257
Frame#	Time	RASI			LASI			RPSI			LPSI			RTH1			RTH2			RTH3			RTH4			RLFC			RTB1			RTB2			RTB3			RTB4			RLMAL			RCAL			RTOE			RMT5			LTH1			LTH2			LTH3			LTH4			LLFC			LTB1			LTB2			LTB3			LTB4			LLMAL			LCAL			LTOE			LMT5			C7			T10			CLAV			RACR			LACR			RLEL			RFAradius			LLEL			LFAradius		
		X1	Y1	Z1	X2	Y2	Z2	X3	Y3	Z3	X4	Y4	Z4	X5	Y5	Z5	X6	Y6	Z6	X7	Y7	Z7	X8	Y8	Z8	X9	Y9	Z9	X10	Y10	Z10	X11	Y11	Z11	X12	Y12	Z12	X13	Y13	Z13	X14	Y14	Z14	X15	Y15	Z15	X16	Y16	Z16	X17	Y17	Z17	X18	Y18	Z18	X19	Y19	Z19	X20	Y20	Z20	X21	Y21	Z21	X22	Y22	Z22	X23	Y23	Z23	X24	Y24	Z24	X25	Y25	Z25	X26	Y26	Z26	X27	Y27	Z27	X28	Y28	Z28	X29	Y29	Z29	X30	Y30	Z30	X31	Y31	Z31	X32	Y32	Z32	X33	Y33	Z33	X34	Y34	Z34	X35	Y35	Z35	X36	Y36	Z36	X37	Y37	Z37	X38	Y38	Z38	X39	Y39	Z39
129	0.640000	1639.538818	949.493986	757.584839	1665.349058	961.222512	516.635098	1482.269215	992.978107	663.609417	1487.009981	993.612267	572.619435	1580.487331	687.163528	788.790881	1640.689013	682.631235	766.701288	1629.815918	581.531944	754.848067	1583.836119	581.812021	774.557726	1563.838612	451.400733	742.953758	1474.092726	362.835308	759.893975	1510.000725	336.957883	734.579594	1445.902077	256.736338	706.437653	1402.762818	290.367667	738.345785	1268.042659	144.394139	691.063325	1201.286700	143.323152	633.138387	1403.812627	61.155559	615.076218	1365.314343	59.415477	711.302975	1763.013716	766.175065	468.322958	1777.238448	790.686500	509.097092	1843.430350	718.407350	537.568100	1827.494001	681.516896	485.992099	1859.054404	566.642430	500.760510	1796.967644	507.418956	473.505675	1818.855928	469.801910	497.311754	1733.614019	412.107085	503.678429	1699.392918	460.004951	471.002138	1528.234454	329.986855	482.856820	1440.060993	357.102141	535.320064	1586.774223	185.614056	543.397025	1556.853612	221.401784	448.325949	1574.585446	1489.996012	650.065472	1486.805286	1304.309545	631.923752	1685.253465	1405.015291	661.638406	1625.400474	1448.281508	815.986552	1622.395771	1475.820126	473.048922	1579.009211	1111.214216	883.277224	1801.446581	1122.943895	772.665836	1448.612063	1197.463571	353.349226	1663.261043	1122.989056	460.380973
130	0.645000	1657.073372	952.564236	757.663932	1681.650422	966.025135	517.027064	1499.436916	996.808958	664.920701	1504.090521	997.879862	573.286899	1592.728938	691.239081	789.131100	1652.725659	683.200829	765.567662	1639.591660	584.092891	754.839861	1593.825240	585.683484	774.516810	1570.219751	454.817875	742.967200	1479.415004	368.052002	760.204214	1515.210808	341.273007	735.464277	1450.599105	261.526078	707.210284	1407.732830	296.179778	739.256516	1271.680856	150.108153	691.760401	1205.724289	150.122279	633.441813	1404.495185	61.511778	615.113938	1366.971686	60.543433	711.868291	1780.893530	772.359389	467.613133	1793.644702	798.068751	508.404938	1860.737045	725.236444	538.417680	1844.560027	688.326185	486.548558	1876.895050	573.361793	500.387966	1816.088712	510.201694	473.753627	1840.579623	474.059933	497.402321	1757.672759	412.617397	504.062162	1721.247773	458.795577	472.210761	1555.970181	321.426140	483.904951	1468.733304	344.383339	536.949597	1621.859817	180.754249	546.023271	1589.602492	213.464264	450.042016	1589.888724	1494.267020	650.162955	1502.237588	1308.296503	634.135391	1701.053306	1409.650583	660.328252	1643.352136	1453.388531	815.451818	1635.249157	1479.512510	473.244400	1600.956708	1116.542482	883.644372	1821.224903	1133.535133	770.813449	1458.538717	1203.831951	354.574434	1673.430282	1128.126686	457.844998
131	0.650000	1674.550108	955.729025	758.080077	1697.732969	971.087171	517.378523	1516.850414	1001.105297	666.144626	1521.317389	1002.195007	574.130077	1605.115024	694.792694	788.667204	1665.618006	686.126335	765.707043	1649.750928	585.726448	753.120830	1603.688337	588.343480	772.893453	1576.564381	459.980025	743.060681	1484.813906	371.560277	758.832038	1520.658187	345.274974	735.036496	1455.708184	266.640690	708.033824	1413.089723	302.053941	740.399073	1277.068130	155.251257	692.325828	1210.380071	157.209880	634.190128	1405.327930	61.798018	615.269000	1368.920653	61.614958	712.219357	1797.605905	778.534528	468.312021	1810.324189	803.607904	509.351611	1877.185044	731.924754	539.116729	1862.528483	695.391387	487.307440	1894.706521	579.426011	500.053725	1835.348114	512.638882	473.943923	1861.720474	477.818443	498.055395	1782.079350	412.770006	504.762268	1743.062452	457.485905	472.964327	1584.714805	312.358316	485.429546	1495.413224	330.950259	538.791964	1656.694697	175.368156	548.174207	1622.969691	206.422281	452.130234	1605.808541	1498.372326	650.761104	1517.196958	1311.657384	636.261389	1716.765600	1414.592177	659.424952	1660.794412	1459.070633	815.246230	1647.831595	1483.554405	473.533786	1622.906965	1121.952921	884.098635	1841.193797	1143.877934	767.545791	1468.561825	1210.527954	355.827798	1684.744348	1132.940063	455.430241
132	0.655000	1692.274037	958.603283	758.063699	1713.563859	975.475301	518.740163	1534.857037	1004.824118	667.331903	1538.224194	1006.461539	575.407430	1618.268808	699.078901	788.430766	1678.290953	688.708581	764.774099	1660.805218	587.916670	753.057297	1614.705134	592.929178	773.174582	1584.385421	463.858566	743.463334	1490.942507	378.624814	759.850324	1526.769409	351.462548	735.831555	1461.259814	272.034463	708.905887	1418.783159	308.239593	740.897988	1282.391494	162.109784	693.721902	1216.502988	164.261179	635.059316	1406.792942	62.239657	615.527636	1371.253658	62.874739	713.081677	1814.332017	784.688726	468.716052	1827.413113	809.523192	510.309080	1893.688177	738.386069	539.766281	1879.724166	701.475949	487.694194	1911.494676	584.695886	499.871956	1854.622943	514.749994	474.045051	1883.621632	479.207515	498.295972	1805.568031	413.629944	504.903594	1765.363100	455.776295	473.342130	1613.708244	303.806942	487.017440	1523.260345	318.880802	540.146094	1691.788816	169.733271	549.570822	1656.785443	199.092408	454.455524	1621.038790	1502.975164	651.283810	1536.508520	1313.589364	638.402282	1732.165223	1419.388417	659.341794	1678.258541	1464.476231	814.203443	1661.166099	1487.991606	473.432642	1644.445525	1127.550815	884.859490	1860.355076	1154.124185	764.840794	1478.762500	1217.042920	357.028018	1695.908868	1137.978519	453.168157
133	0.660000	1710.578488	961.755116	757.887650	1730.574786	981.559661	518.615223	1552.793868	1009.155227	668.664015	1555.530646	1011.477087	575.881076	1631.717902	702.820584	788.472523	1691.120790	689.795773	763.435238	1671.446949	591.414269	752.330227	1625.779958	596.435616	772.654907	1592.173915	467.545556	743.195793	1497.907051	384.998146	760.962331	1533.373553	356.719295	736.545486	1467.284495	277.661688	709.824085	1425.220942	314.701122	741.750866	1288.882363	167.982005	694.936166	1222.522832	172.584943	636.049519	1408.700554	62.414365	616.326851	1373.975647	63.824886	713.491793	1831.015060	790.691382	468.931659	1844.471514	816.588626	510.478233	1909.782168	744.225632	539.954523	1896.425723	707.354492	488.122340	1928.027293	589.472315	499.829166	1873.790290	516.554502	474.025499	1903.922351	483.825109	498.059906	1829.589057	414.172252	505.375611	1787.411478	453.784837	473.654786	1642.256334	294.573838	488.415526	1552.153362	305.614133	542.494289	1727.473575	165.168240	552.322828	1690.815032	191.353314	456.573791	1636.653357	1507.449855	651.554601	1552.316202	1317.391061	641.143616	1748.136625	1424.323918	657.492524	1695.545785	1470.169246	813.917297	1674.426848	1492.167715	473.848577	1665.826940	1133.616298	885.733581	1879.097711	1164.078792	762.858913	1489.583159	1223.563977	357.901148	1708.445468	1143.615421	451.457703
134	0.665000	1728.764897	965.103324	758.120478	1747.002637	987.177148	518.608208	1570.954761	1013.418573	670.040524	1572.740238	1015.780352	576.729838	1645.403073	706.596885	787.572209	1704.269701	693.623753	763.566124	1682.438587	594.643759	751.584183	1636.805360	600.779409	772.029267	1599.806469	473.812313	743.042438	1504.404137	391.082631	760.936023	1539.920760	364.158004	737.751613	1473.812728	283.476654	710.786029	1431.749914	321.962763	742.773031	1295.779035	175.073618	695.983895	1229.332627	180.650932	636.904038	1410.840318	62.571264	617.084676	1375.306400	64.508449	713.692616	1847.598230	796.411893	469.065271	1860.650624	821.650687	511.158327	1925.963010	749.728303	540.215379	1912.467258	712.993735	488.723473	1944.091351	593.747059	499.471477	1892.727248	518.071880	473.853755	1924.211433	487.958242	496.175773	1852.793984	413.978337	505.801895	1809.225070	451.518458	473.909429	1671.509401	285.610371	490.075742	1581.337776	292.303340	544.294362	1762.658932	160.289854	554.528259	1724.508201	184.205002	459.017465	1652.086955	1511.911665	651.368971	1569.022076	1321.018231	643.288228	1763.485237	1429.277227	656.993289	1712.780906	1475.554991	813.049307	1687.689036	1496.064049	473.942063	1686.924528	1139.330795	886.705704	1897.437105	1173.691023	760.436198	1500.641034	1229.830218	359.255600	1720.089143	1148.726327	449.216131
